<?xml version="1.0" encoding="UTF-8"?>
<svg version="1.1" xmlns="http://www.w3.org/2000/svg" width="1280" height="413">
<path d="M0 0 C422.4 0 844.8 0 1280 0 C1280 136.29 1280 272.58 1280 413 C857.6 413 435.2 413 0 413 C0 276.71 0 140.42 0 0 Z " fill="#FCFCFC" transform="translate(0,0)"/>
<path d="M0 0 C58.62526944 -0.05072936 117.25053861 -0.09912352 175.87582397 -0.12702942 C176.74369924 -0.12744359 177.6115745 -0.12785776 178.50574902 -0.12828448 C197.36768112 -0.13726351 216.22961346 -0.14557402 235.09154616 -0.15319599 C244.34162978 -0.15693795 253.59171334 -0.16082762 262.84179688 -0.16479492 C263.76228419 -0.1651872 264.6827715 -0.16557948 265.63115237 -0.16598364 C295.45892101 -0.17876433 325.28667258 -0.20129577 355.11443088 -0.22889166 C385.77007414 -0.25720194 416.42570796 -0.27565923 447.08136408 -0.28174497 C451.4127162 -0.28260942 455.7440683 -0.28358633 460.07542038 -0.28463173 C461.35411027 -0.28493513 461.35411027 -0.28493513 462.65863227 -0.28524467 C476.37277942 -0.28878779 490.08689735 -0.30269652 503.80103259 -0.3204961 C517.59327502 -0.33817532 531.38548853 -0.34489955 545.1777419 -0.34050413 C553.3687828 -0.33822497 561.5597177 -0.34428265 569.75073944 -0.36239263 C575.87305315 -0.37500207 581.99526514 -0.37186477 588.11758284 -0.36269668 C590.5902276 -0.36143052 593.06288135 -0.36522408 595.53550847 -0.37464955 C620.26403064 -0.46341589 640.07986931 2.65327317 658.75 20.3125 C676.1074919 38.38288889 678.44576615 59.58654672 678.34955978 83.41277313 C678.33566706 87.18276373 678.34235042 90.95223693 678.35440063 94.722229 C678.38320989 104.75846913 678.38315527 114.79460522 678.36414778 124.83086228 C678.35051851 132.08211914 678.35997265 139.33301273 678.39024734 146.58423615 C678.39564057 149.07017021 678.39174698 151.55614452 678.37784958 154.04204559 C678.22337533 181.99579742 684.4368709 206.15064212 704.52001953 226.54345703 C720.95266244 242.39496448 743.80350485 251.63070336 766.66674805 251.41918945 C791.74713578 250.48827776 814.72264792 240.21872615 832 222 C850.56980883 200.66242071 854.28302857 175.30129511 854.30496025 148.06515312 C854.30865901 144.36836786 854.32547925 140.67184255 854.34571838 136.97511292 C854.40080755 126.47344812 854.43181165 115.97174688 854.45629883 105.4699707 C854.47222984 99.02284948 854.50249832 92.57591631 854.54106331 86.1288929 C854.55265489 83.68546617 854.55864314 81.24200578 854.55874443 78.79855156 C854.5589379 75.37518677 854.57730541 71.95233692 854.59936523 68.52905273 C854.59249947 67.0394529 854.59249947 67.0394529 854.585495 65.51976013 C854.6874923 55.49208328 856.93650388 45.9454829 861.5 37 C861.84039307 36.328479 862.18078613 35.65695801 862.53149414 34.96508789 C871.08902294 18.94090104 886.21145752 7.9394399 903.0859375 1.89453125 C921.33484197 -3.10163411 939.70242072 -0.39921532 956.25390625 8.37109375 C973.22643969 18.43872739 984.26423178 33.92591036 989.57348824 52.86355972 C990.44390111 57.22354527 990.28228969 61.65188675 990.27124023 66.08154297 C990.27908035 67.7246067 990.27908035 67.7246067 990.28707886 69.40086365 C990.29729643 71.77323861 990.30309534 74.14563584 990.30496025 76.51803207 C990.30863759 80.2871203 990.32540566 84.05594859 990.34571838 87.82498169 C990.39403375 97.1936423 990.42563815 106.56233214 990.44702148 115.93109131 C990.4651086 123.84039841 990.49474393 131.74952184 990.54106331 139.65872574 C990.55262368 142.14546885 990.55864287 144.63224476 990.55874443 147.11901474 C990.53955497 172.57119623 990.53955497 172.57119623 997.6875 196.8125 C998.21077881 198.00166016 998.21077881 198.00166016 998.74462891 199.21484375 C1008.17130973 220.00687616 1024.72148228 236.49871349 1046 245 C1070.22093654 253.32968078 1094.24099776 253.47677598 1117.79394531 242.13623047 C1140.42404276 230.60111597 1154.7333761 212.68904411 1163 189 C1166.2531319 178.87208546 1167.14729796 169.32334154 1167.1418457 158.74145508 C1167.14705734 157.08853455 1167.14705734 157.08853455 1167.15237427 155.40222168 C1167.1597003 153.01947847 1167.16506239 150.63672857 1167.16866493 148.25397682 C1167.17586924 144.473355 1167.1915656 140.69286007 1167.21000671 136.91227722 C1167.26228874 126.16638495 1167.31085714 115.42057602 1167.32592773 104.67456055 C1167.33525566 98.09051544 1167.36546813 91.50675808 1167.40724754 84.92282677 C1167.41950305 82.42440935 1167.42468885 79.92594624 1167.42244911 77.42749977 C1167.40556673 52.44928999 1167.40556673 52.44928999 1172 42 C1172.75990234 40.17275391 1172.75990234 40.17275391 1173.53515625 38.30859375 C1182.21366055 21.99478133 1195.7498209 9.77925326 1213 3 C1226 0 1226 0 1254 0 C1254 18.48 1254 36.96 1254 56 C1246.41 56.33 1238.82 56.66 1231 57 C1226.99166185 57.50596447 1226.99166185 57.50596447 1225.8125 59.9375 C1225.4103125 60.9584375 1225.4103125 60.9584375 1225 62 C1224.67 62.66 1224.34 63.32 1224 64 C1223.90447732 65.48817028 1223.87098393 66.98054016 1223.86869812 68.47177124 C1223.86468994 69.41324509 1223.86068176 70.35471893 1223.85655212 71.32472229 C1223.85708084 72.36144577 1223.85760956 73.39816925 1223.8581543 74.46630859 C1223.85294266 76.10104881 1223.85294266 76.10104881 1223.84762573 77.76881409 C1223.84025577 80.1450995 1223.83491703 82.52139186 1223.83133507 84.897686 C1223.82416731 88.67555026 1223.80849226 92.45328479 1223.78999329 96.23110962 C1223.7375813 106.97664879 1223.68924923 117.72211078 1223.67407227 128.46777344 C1223.6646967 135.03844616 1223.63434018 141.60885361 1223.59275246 148.1794014 C1223.58054948 150.66924227 1223.57530131 153.1591285 1223.57755089 155.64899826 C1223.59029458 174.38179316 1221.96528314 191.96738435 1215.75 209.75 C1215.4519043 210.6164917 1215.15380859 211.4829834 1214.84667969 212.37573242 C1207.81991354 232.18822129 1196.64520779 249.01171267 1182 264 C1180.81857422 265.27423828 1180.81857422 265.27423828 1179.61328125 266.57421875 C1162.20634797 284.90184932 1139.2412133 296.59566199 1115 303 C1114.33033203 303.18336914 1113.66066406 303.36673828 1112.97070312 303.55566406 C1078.61161901 312.67795459 1039.59192965 307.3134906 1008.74414062 289.71289062 C999.55009363 284.20599817 991.11097778 277.99910385 983 271 C981.91781696 270.14437644 980.83468246 269.28995279 979.75 268.4375 C976.13550737 265.23374517 973.08616964 261.70732666 970 258 C969.3709375 257.25878906 968.741875 256.51757812 968.09375 255.75390625 C946.43434981 229.58213101 934.87823752 197.81360461 934.84228516 163.84643555 C934.83466408 162.2469532 934.83466408 162.2469532 934.82688904 160.61515808 C934.81625338 158.31810492 934.80760701 156.02104184 934.80076981 153.72397423 C934.78890419 150.08821195 934.76943671 146.4525644 934.74765015 142.81684875 C934.68625726 132.48625479 934.6318671 122.15567741 934.59863281 111.82495117 C934.57771566 105.49152737 934.54245097 99.1583213 934.49787521 92.82502174 C934.4837083 90.41489021 934.47499123 88.00472026 934.47182083 85.59454918 C934.46692437 82.23166337 934.44380313 78.86935971 934.41650391 75.5065918 C934.41951004 74.51169739 934.42251617 73.51680298 934.4256134 72.49176025 C934.35146842 66.35603599 933.55863669 62.853864 929.375 58.1875 C925.62514976 56.31257488 922.09687683 56.22740558 918 57 C914.42947791 58.93341549 912.30548034 61.08355899 911 65 C910.90753042 66.54117879 910.87104627 68.08604106 910.86869812 69.62998962 C910.86468994 70.58125229 910.86068176 71.53251495 910.85655212 72.51260376 C910.8573452 74.07632217 910.8573452 74.07632217 910.8581543 75.67163086 C910.85467987 76.77135727 910.85120544 77.87108368 910.84762573 79.00413513 C910.84026273 81.39895559 910.83492025 83.79378289 910.83133507 86.18861198 C910.82416011 89.99596002 910.80848019 93.80317988 910.78999329 97.61048889 C910.73761135 108.43879718 910.68924166 119.26702826 910.67407227 130.09545898 C910.66469806 136.71915681 910.63434746 143.34257235 910.59275246 149.96615791 C910.58054941 152.47553659 910.57530132 154.98496026 910.57755089 157.4943676 C910.58987177 175.74546336 909.58811991 193.59955411 902.75 210.75 C902.30285645 211.9088269 902.30285645 211.9088269 901.84667969 213.09106445 C893.39256915 234.50068238 881.28436379 251.78769092 865 268 C864.47414307 268.54881836 863.94828613 269.09763672 863.40649414 269.66308594 C859.26870987 273.93396884 854.9337374 277.53303682 850.0625 280.9375 C849.32668701 281.45328613 848.59087402 281.96907227 847.83276367 282.50048828 C840.57847712 287.46994187 833.00029888 291.38821458 825 295 C824.37963867 295.28601074 823.75927734 295.57202148 823.12011719 295.86669922 C815.57069598 299.33400346 808.13301717 302.27481454 800 304 C798.12828125 304.41765625 798.12828125 304.41765625 796.21875 304.84375 C774.64153017 309.18291606 750.19462555 309.09937319 729 303 C728.2359082 302.78569336 727.47181641 302.57138672 726.68457031 302.35058594 C690.21213675 291.86228043 659.05031863 267.17415093 640.24609375 234.26171875 C632.62954278 220.47366519 627.0305107 206.49986332 624 191 C623.81892197 190.1601355 623.63784393 189.320271 623.45127869 188.45495605 C621.41907428 177.60891379 621.70372866 166.66101034 621.69503975 155.66600037 C621.69134667 151.90812968 621.67454463 148.15051598 621.65428162 144.3927002 C621.60611533 135.07239077 621.57415618 125.75204793 621.55297852 116.43164062 C621.53500431 108.52662516 621.50567084 100.6218494 621.45893669 92.7169342 C621.44728579 90.22585544 621.44135633 87.73474309 621.44125557 85.24363708 C621.44106395 81.77094729 621.42283348 78.29878057 621.40063477 74.82617188 C621.40521194 73.79858765 621.40978912 72.77100342 621.414505 71.71228027 C621.40750065 64.82424037 621.40750065 64.82424037 618 59 C614.89261018 57.08099511 612.5116577 56.74389912 608.88739014 56.7215271 C607.33935196 56.70478188 607.33935196 56.70478188 605.76004028 56.68769836 C604.63363129 56.68553818 603.50722229 56.68337799 602.34667969 56.68115234 C601.15615997 56.67110672 599.96564026 56.6610611 598.73904419 56.65071106 C595.47904622 56.62512491 592.2191431 56.60826616 588.95907497 56.59528303 C585.55040475 56.57964596 582.14182262 56.55285759 578.73321533 56.5272522 C572.28059245 56.48047456 565.82795297 56.44372558 559.37524724 56.41057932 C552.02820237 56.37235073 544.68124599 56.32294252 537.33427572 56.27259517 C522.22290989 56.16929041 507.1115021 56.08150113 492 56 C492 65.9 492 75.8 492 86 C495.43535156 85.94199219 498.87070312 85.88398438 502.41015625 85.82421875 C505.78619078 85.78507801 509.16219877 85.75480193 512.53833008 85.7253418 C514.86103881 85.70040104 517.18367073 85.66643582 519.50610352 85.62280273 C540.99225036 85.22962244 558.36505793 87.735377 574.75 103.0625 C585.32623501 114.18894377 591 126.59018722 591 142 C396.3 142 201.6 142 1 142 C2.13307609 127.2700108 5.06167844 116.91100835 15 106 C15.60585938 105.31421875 16.21171875 104.6284375 16.8359375 103.921875 C27.21751458 92.81994359 40.79159668 86.29748828 55.984375 85.6003418 C62.65871938 85.45012976 69.32617891 85.56164157 76 85.6875 C78.33591339 85.71263653 80.67185311 85.73544015 83.0078125 85.75585938 C88.67307387 85.80608332 94.33460066 85.90401244 100 86 C100 76.1 100 66.2 100 56 C67 56 34 56 0 56 C0 37.52 0 19.04 0 0 Z " fill="#010101" transform="translate(13,91)"/>
<path d="M0 0 C59.49394836 -0.06765749 118.98789626 -0.13218205 178.48187256 -0.16937256 C179.36301686 -0.16992479 180.24416115 -0.17047702 181.15200679 -0.17104598 C200.303663 -0.18301883 219.45531963 -0.19409938 238.60697688 -0.20426132 C247.99954067 -0.20925047 257.39210435 -0.21443671 266.78466797 -0.21972656 C267.71931916 -0.2202496 268.65397034 -0.22077263 269.61694429 -0.22131152 C299.88779924 -0.23834358 330.15862422 -0.26837885 360.42946104 -0.30518888 C391.54805041 -0.34296089 422.66662323 -0.36755143 453.78523514 -0.37565996 C458.18493576 -0.37681251 462.58463631 -0.37811505 466.98433685 -0.37950897 C467.85022374 -0.37977866 468.71611064 -0.38004836 469.60823652 -0.38032622 C483.52205304 -0.38504504 497.43581821 -0.40357548 511.34961382 -0.42732814 C525.35256356 -0.45093616 539.35546262 -0.45985718 553.35843155 -0.45400551 C561.66821881 -0.45097333 569.9778199 -0.45898286 578.28757339 -0.48319017 C584.50894274 -0.50006813 590.73013494 -0.4957848 596.95151147 -0.48359558 C599.45656643 -0.48191414 601.9616374 -0.48691274 604.46666113 -0.49953273 C622.51295011 -0.58510965 639.85447412 0.80679908 656.9375 7.0625 C657.74123047 7.35141113 658.54496094 7.64032227 659.37304688 7.93798828 C678.70890809 15.19080263 695.03713241 25.85635544 710 40 C710.81082031 40.74636719 711.62164063 41.49273437 712.45703125 42.26171875 C730.41950635 59.37557298 742.44042554 82.03897906 749.3125 105.6875 C749.55500488 106.51773682 749.79750977 107.34797363 750.04736328 108.20336914 C754.01149791 122.5232802 754.29316663 136.3502069 754.30496025 151.11823845 C754.30865456 154.83857918 754.32546028 158.55866061 754.34571838 162.27894592 C754.39387638 171.50700236 754.42583 180.73510091 754.44702148 189.96325684 C754.46500609 197.78906804 754.49436375 205.61467267 754.54106331 213.44037056 C754.55270533 215.90550285 754.55864359 218.370669 754.55874443 220.83582878 C754.55893632 224.27478824 754.57718698 227.7132218 754.59936523 231.15209961 C754.59478806 232.16673782 754.59021088 233.18137604 754.585495 234.22676086 C754.64003442 239.54207714 754.91359157 243.45705811 758 248 C762.03940103 250.69293402 765.2547083 250.6709697 770 250 C774.74395867 247.58350288 774.74395867 247.58350288 777 243 C777.09190645 241.54381088 777.12894164 240.08379472 777.13130188 238.62471008 C777.13531006 237.72971298 777.13931824 236.83471588 777.14344788 235.91259766 C777.1426548 234.44246216 777.1426548 234.44246216 777.1418457 232.94262695 C777.14532013 231.90784714 777.14879456 230.87306732 777.15237427 229.80693054 C777.15973738 227.55290071 777.1650798 225.2988636 777.16866493 223.0448246 C777.17584823 219.45480692 777.19153641 215.86492453 777.21000671 212.27494812 C777.26233442 202.06426034 777.31027422 191.85364072 777.32592773 181.64282227 C777.33613238 175.39514612 777.36578254 169.1478025 777.40724754 162.90025902 C777.41940399 160.53932423 777.42470755 158.17834209 777.42244911 155.81737709 C777.39045201 111.37848108 789.93761973 73.37772536 821 41 C838.90529491 23.26100814 860.7266747 10.71018717 885 4 C885.6801416 3.79262207 886.3602832 3.58524414 887.06103516 3.37158203 C922.22536056 -7.21201817 962.14809705 0.87597569 993.76416016 17.78662109 C1001.10922035 21.87566727 1007.63335616 26.50843484 1014 32 C1014.88816406 32.76183594 1015.77632812 33.52367187 1016.69140625 34.30859375 C1019.17317164 36.49482066 1021.59370864 38.731211 1024 41 C1025.10408203 42.00740234 1025.10408203 42.00740234 1026.23046875 43.03515625 C1052.01896512 67.45435192 1066.04090682 103.9729264 1067.27734375 139.03219604 C1067.39773808 144.42915813 1067.41822232 149.82513444 1067.41069031 155.22329521 C1067.40613101 158.77632292 1067.42043004 162.32887362 1067.43908691 165.8818512 C1067.48163387 174.6824821 1067.49316016 183.48309762 1067.50531006 192.28381348 C1067.51683971 199.7761846 1067.54034928 207.26833007 1067.58000183 214.76060677 C1067.59353794 218.25386752 1067.58941218 221.74682055 1067.58459473 225.24009705 C1067.59393099 227.37548212 1067.60409871 229.51086378 1067.61523438 231.64624023 C1067.60908615 232.61090714 1067.60293793 233.57557404 1067.59660339 234.56947327 C1067.64433553 239.77781467 1068.00326075 243.53603614 1071 248 C1075.04485657 250.69657104 1078.25307196 250.5422677 1083 250 C1086.8919749 248.34384047 1088.42749052 246.86249612 1090 243 C1090.2989389 240.7727661 1090.2989389 240.7727661 1090.25828552 238.38142395 C1090.26511353 237.45810776 1090.27194153 236.53479156 1090.27897644 235.58349609 C1090.27642349 234.57730225 1090.27387054 233.5711084 1090.27124023 232.53442383 C1090.27646698 231.4687468 1090.28169373 230.40306976 1090.28707886 229.30509949 C1090.29732508 226.98832994 1090.30310034 224.67153733 1090.30496025 222.35474586 C1090.30862655 218.67410742 1090.32536602 214.99373781 1090.34571838 211.31315613 C1090.40106954 200.84692421 1090.43164657 190.38065099 1090.45629883 179.91430664 C1090.47229175 173.50995769 1090.50264454 167.10579533 1090.54106331 160.70154381 C1090.55262388 158.273414 1090.55864287 155.8452506 1090.55874443 153.41709328 C1090.55951311 139.91643025 1091.03602365 127.20231363 1094 114 C1094.29451688 112.60113285 1094.58703578 111.20184354 1094.87754822 109.80213928 C1102.17709961 75.11224507 1125.48102109 43.3637877 1154.76123047 23.82470703 C1168.99777468 14.60054024 1183.95344094 7.4687686 1200.50488281 3.58666992 C1202.34443612 3.1541409 1204.17624308 2.6883434 1206.00292969 2.2043457 C1216.06170116 -0.27243356 1225.57046784 -0.34813811 1235.875 -0.1875 C1241.52625 -0.125625 1247.1775 -0.06375 1253 0 C1253 18.15 1253 36.3 1253 55 C1248.730625 55.0825 1244.46125 55.165 1240.0625 55.25 C1213.36658973 56.07832918 1190.3831222 63.83299342 1171.25268555 83.20361328 C1155.611393 99.85731262 1147.86511775 121.56952681 1147.84228516 144.16088867 C1147.83720444 145.26429596 1147.83212372 146.36770325 1147.82688904 147.50454712 C1147.81621645 149.89330957 1147.80758416 152.28208182 1147.80076981 154.67085838 C1147.78893267 158.45952358 1147.76946685 162.24807724 1147.74765015 166.03669739 C1147.68619966 176.80641198 1147.63181573 187.57610668 1147.59863281 198.34594727 C1147.57822241 204.94176877 1147.54226171 211.53740176 1147.49787521 218.13311195 C1147.48377041 220.63793832 1147.47500534 223.14280097 1147.47182083 225.64766502 C1147.46687925 229.16270612 1147.44363732 232.67720824 1147.41650391 236.19213867 C1147.41951004 237.21333298 1147.42251617 238.23452728 1147.4256134 239.28666687 C1147.24498827 255.14625842 1141.66812509 269.54466768 1132 282 C1131.55140625 282.61359375 1131.1028125 283.2271875 1130.640625 283.859375 C1120.52169679 296.83541236 1104.01065603 304.56938753 1088 307 C1068.55417259 308.79850507 1051.11268498 303.96662107 1035.5 292.125 C1030.63179631 287.94291897 1026.70816853 283.22187016 1023 278 C1022.45472656 277.24203125 1021.90945313 276.4840625 1021.34765625 275.703125 C1013.35649488 263.58421361 1010.85082378 249.27773647 1010.8581543 235.01611328 C1010.85467987 233.91927719 1010.85120544 232.8224411 1010.84762573 231.69236755 C1010.840285 229.31396107 1010.83493067 226.93554781 1010.83133507 224.55713272 C1010.82414207 220.78004739 1010.8084518 217.0030899 1010.78999329 213.2260437 C1010.7376742 202.48762395 1010.68918484 191.74928527 1010.67407227 181.01074219 C1010.66472414 174.43547584 1010.63445132 167.86047641 1010.59275246 161.28533554 C1010.5805203 158.79218871 1010.5753068 156.2989963 1010.57755089 153.80582047 C1010.59500675 128.07077388 1006.19032143 107.5684314 990 87 C988.80503906 85.48019531 988.80503906 85.48019531 987.5859375 83.9296875 C973.64972291 68.14092475 951.36056829 57.64010549 930.50195312 55.77685547 C905.16346389 54.62192433 883.0813214 61.61311951 863.875 78.375 C862.23586041 79.90162455 860.61018629 81.44286763 859 83 C858.31035156 83.66386719 857.62070312 84.32773438 856.91015625 85.01171875 C841.52775699 101.00332194 834.65408522 123.58934445 834.74462891 145.36791992 C834.74100845 146.445979 834.737388 147.52403809 834.73365784 148.63476562 C834.72680838 150.95687711 834.72424997 153.27900453 834.72560501 155.60112572 C834.72657832 159.29045162 834.71353212 162.97949256 834.69662476 166.66877747 C834.65060197 177.15196541 834.62576805 187.63512255 834.61914062 198.1184082 C834.61409614 204.55031288 834.58969989 210.98191821 834.55381393 217.41372108 C834.54408603 219.84826158 834.54164519 222.28284361 834.54698563 224.71739769 C834.58095525 240.96565079 834.1828916 256.51580982 826.4375 271.25 C825.92823975 272.23238647 825.92823975 272.23238647 825.40869141 273.23461914 C815.92593626 290.62956135 799.58948169 300.49200543 781 306 C762.29273501 309.45884043 744.02040869 306.33084092 728 296 C723.61310521 292.7191461 719.79384254 288.93745803 716 285 C715.40960937 284.44054687 714.81921875 283.88109375 714.2109375 283.3046875 C701.93975312 270.7710179 697.67602915 251.25994868 697.74462891 234.44848633 C697.74100845 233.3509201 697.737388 232.25335388 697.73365784 231.12252808 C697.72680713 228.7578546 697.72425021 226.39316545 697.72560501 224.02848244 C697.72657806 220.27194852 697.71353516 216.51569468 697.69662476 212.75920105 C697.65059394 202.084841 697.62568557 191.41053352 697.61914062 180.73608398 C697.61495634 174.18749103 697.58970532 167.63913817 697.55381393 161.09064293 C697.54408382 158.61144472 697.54164643 156.13220571 697.54698563 153.65299416 C697.6037714 125.98674837 692.06508425 102.74853354 672.8515625 81.82421875 C650.64025807 59.94092936 623.28130142 55.37803173 593.33578491 55.48101807 C590.76699405 55.47513384 588.19820671 55.46750214 585.62942564 55.458287 C580.07254857 55.44113442 574.51581805 55.43852291 568.95892143 55.44580269 C560.69623972 55.45655944 552.43370099 55.44425208 544.17103508 55.42743097 C530.26754411 55.39976904 516.36409873 55.39049601 502.46058273 55.39188385 C488.704219 55.39319625 474.94790005 55.3862247 461.19154739 55.36830902 C460.33463605 55.36719763 459.47772471 55.36608624 458.59484635 55.36494118 C454.24261965 55.3592537 449.89039315 55.35341938 445.53816672 55.34752855 C414.75103478 55.30612125 383.96391405 55.28310718 353.17675781 55.27099609 C323.2766798 55.25919166 293.37662655 55.23900222 263.4765625 55.20751953 C262.55410936 55.20655158 261.63165622 55.20558363 260.68124996 55.20458635 C251.4171784 55.19485612 242.15310702 55.18495605 232.88903577 55.17493158 C214.01884914 55.15451639 195.14866141 55.1352344 176.2784729 55.11663818 C175.41094648 55.11578185 174.54342005 55.11492553 173.64960495 55.11404325 C115.76641598 55.05703701 57.88320943 55.02735234 0 55 C0 36.85 0 18.7 0 0 Z " fill="#010101" transform="translate(13,15)"/>
<path d="M0 0 C194.7 0 389.4 0 590 0 C590 15.17584646 584.5186487 28.06339175 574 39 C562.86343273 48.76782716 550.38392524 55.33655288 535.39473438 55.25726891 C534.54944254 55.26077498 533.70415069 55.26428105 532.83324394 55.26789337 C529.99975085 55.27719993 527.16646363 55.27228594 524.33296204 55.26742554 C522.28132068 55.27116217 520.22968074 55.27576375 518.17804307 55.28115618 C512.53902582 55.29340002 506.90006784 55.29312407 501.26104033 55.29076743 C495.17974978 55.29035961 489.09847833 55.3013951 483.01719666 55.31088257 C471.10204071 55.32750134 459.18690391 55.33301843 447.27173934 55.33410732 C437.58665078 55.33502663 427.90156864 55.33914444 418.21648216 55.34550858 C415.42799241 55.34730369 412.63950265 55.34908331 409.85101289 55.35085833 C408.81114871 55.35152148 408.81114871 55.35152148 407.75027717 55.35219802 C388.25132376 55.36450591 368.75237257 55.3723992 349.25341511 55.37151146 C348.15076559 55.37146472 348.15076559 55.37146472 347.02584033 55.37141704 C343.30011013 55.37125083 339.57437992 55.37105275 335.84864972 55.37084763 C335.10871651 55.37080774 334.3687833 55.37076785 333.60642788 55.37072675 C332.11010219 55.37064587 330.61377649 55.37056228 329.1174508 55.37047596 C305.84137776 55.36925068 282.56536301 55.38425965 259.28930664 55.41162109 C233.13379182 55.44235478 206.97831529 55.45955279 180.82278126 55.45769465 C178.03271973 55.45754539 175.2426582 55.45744798 172.45259666 55.45738602 C171.42213512 55.45735105 171.42213512 55.45735105 170.37085618 55.45731538 C159.32438181 55.45725389 148.27795812 55.47001575 137.23149881 55.48725055 C126.12527213 55.50421993 115.01910462 55.50582808 103.91286812 55.4930319 C97.89824955 55.4864986 91.88381428 55.4863984 85.8692131 55.5037384 C80.36004318 55.5194578 74.85120206 55.51661671 69.3420402 55.49917014 C67.35214185 55.49609778 65.36221903 55.49974147 63.37234954 55.51089029 C44.73694576 55.60836097 29.27905731 51.79553077 15.3515625 38.53125 C4.98126405 27.36853672 0 15.17802436 0 0 Z " fill="#000000" transform="translate(14,335)"/>
<path d="M0 0 C109.56 0 219.12 0 332 0 C332 9.9 332 19.8 332 30 C222.44 30 112.88 30 0 30 C0 20.1 0 10.2 0 0 Z " fill="#FEFEFE" transform="translate(143,147)"/>
<path d="M0 0 C35.31 0 70.62 0 107 0 C107 20.13 107 40.26 107 61 C71.69 61 36.38 61 0 61 C0 40.87 0 20.74 0 0 Z " fill="#030303" transform="translate(497,253)"/>
<path d="M0 0 C35.31 0 70.62 0 107 0 C107 20.13 107 40.26 107 61 C71.69 61 36.38 61 0 61 C0 40.87 0 20.74 0 0 Z " fill="#030303" transform="translate(376,253)"/>
<path d="M0 0 C35.31 0 70.62 0 107 0 C107 19.8 107 39.6 107 60 C71.69 60 36.38 60 0 60 C0 40.2 0 20.4 0 0 Z " fill="#010101" transform="translate(13,254)"/>
<path d="M0 0 C34.98 0 69.96 0 106 0 C106 19.8 106 39.6 106 60 C71.02 60 36.04 60 0 60 C0 40.2 0 20.4 0 0 Z " fill="#000000" transform="translate(256,254)"/>
<path d="M0 0 C34.98 0 69.96 0 106 0 C106 19.8 106 39.6 106 60 C71.02 60 36.04 60 0 60 C0 40.2 0 20.4 0 0 Z " fill="#000000" transform="translate(135,254)"/>
</svg>
